<?xml version="1.0" encoding="UTF-8"?>
<svg id="_圖層_1" data-name="圖層 1" xmlns="http://www.w3.org/2000/svg" viewBox="0 0 169 40">
  <defs>
    <style>
      .cls-1 {
        fill: #52e2c1;
      }
    </style>
  </defs>
  <g>
    <path class="cls-1" d="M75.6,15.55h2.73v10.88h-2.73v-1.15c-.53.51-1.07.87-1.6,1.09-.54.22-1.12.34-1.74.34-1.41,0-2.62-.55-3.65-1.63-1.03-1.09-1.54-2.45-1.54-4.07s.5-3.06,1.49-4.13c.99-1.07,2.2-1.61,3.62-1.61.65,0,1.27.12,1.84.37.57.25,1.1.62,1.59,1.11v-1.2ZM72.73,17.79c-.84,0-1.54.3-2.1.89-.56.6-.84,1.36-.84,2.3s.28,1.71.85,2.32c.57.61,1.27.91,2.1.91s1.57-.3,2.13-.89c.56-.6.85-1.38.85-2.35s-.28-1.71-.85-2.3c-.57-.59-1.28-.88-2.14-.88Z"/>
    <path class="cls-1" d="M91.74,17.75l-2.27,1.25c-.43-.45-.85-.76-1.27-.93-.42-.17-.91-.26-1.47-.26-1.02,0-1.85.3-2.48.91-.63.61-.95,1.39-.95,2.34s.3,1.68.91,2.27c.61.59,1.41.88,2.39.88,1.22,0,2.17-.42,2.85-1.25l2.15,1.47c-1.17,1.52-2.81,2.28-4.94,2.28-1.91,0-3.41-.57-4.5-1.7-1.08-1.13-1.63-2.46-1.63-3.98,0-1.05.26-2.02.79-2.91.53-.89,1.26-1.58,2.2-2.09.94-.51,2-.76,3.17-.76,1.08,0,2.05.22,2.91.65.86.43,1.56,1.04,2.11,1.83Z"/>
    <path class="cls-1" d="M93.56,15.55h2.34v1.37c.25-.54.59-.95,1.01-1.23.42-.28.88-.42,1.38-.42.35,0,.72.09,1.11.28l-.85,2.35c-.32-.16-.58-.24-.79-.24-.42,0-.77.26-1.07.78-.29.52-.43,1.54-.43,3.06v.53s.01,4.4.01,4.4h-2.71v-10.88Z"/>
    <path class="cls-1" d="M105.86,15.27c1.03,0,1.99.26,2.9.77.9.51,1.61,1.21,2.11,2.09.51.88.76,1.83.76,2.85s-.26,1.99-.76,2.88c-.51.89-1.21,1.59-2.09,2.1-.88.5-1.85.75-2.91.75-1.56,0-2.89-.56-4-1.66-1.1-1.11-1.65-2.46-1.65-4.05,0-1.7.62-3.12,1.87-4.25,1.09-.99,2.35-1.48,3.77-1.48ZM105.91,17.84c-.85,0-1.56.3-2.12.89-.56.59-.85,1.35-.85,2.27s.28,1.71.84,2.3c.56.59,1.26.88,2.12.88s1.57-.3,2.13-.89c.57-.59.85-1.36.85-2.29s-.28-1.69-.84-2.28c-.56-.58-1.27-.88-2.14-.88Z"/>
    <g>
      <path class="cls-1" d="M133.61,11.07c.48,0,.89.17,1.23.52.34.35.51.77.51,1.26s-.17.9-.51,1.24c-.34.34-.74.51-1.22.51s-.9-.17-1.24-.52c-.34-.35-.51-.77-.51-1.28s.17-.89.51-1.23c.34-.34.75-.51,1.23-.51ZM132.25,15.55h2.73v10.88h-2.73v-10.88Z"/>
      <path class="cls-1" d="M148.11,17.75l-2.27,1.25c-.43-.45-.85-.76-1.27-.93-.42-.17-.91-.26-1.47-.26-1.02,0-1.85.3-2.48.91-.63.61-.95,1.39-.95,2.34s.3,1.68.91,2.27c.61.59,1.4.88,2.39.88,1.22,0,2.17-.42,2.85-1.25l2.15,1.47c-1.17,1.52-2.81,2.28-4.94,2.28-1.91,0-3.41-.57-4.5-1.7-1.08-1.13-1.63-2.46-1.63-3.98,0-1.05.26-2.02.79-2.91.53-.89,1.26-1.58,2.21-2.09.94-.51,2-.76,3.17-.76,1.08,0,2.05.22,2.91.65.86.43,1.56,1.04,2.11,1.83Z"/>
      <path class="cls-1" d="M149.93,15.55h2.34v1.37c.25-.54.59-.95,1.01-1.23.42-.28.88-.42,1.38-.42.35,0,.72.09,1.11.28l-.85,2.35c-.32-.16-.58-.24-.79-.24-.42,0-.78.26-1.07.78-.29.52-.44,1.54-.44,3.06v.53s0,4.4,0,4.4h-2.71v-10.88Z"/>
      <path class="cls-1" d="M162.23,15.27c1.03,0,1.99.26,2.9.77.9.51,1.61,1.21,2.12,2.09.51.88.76,1.83.76,2.85s-.26,1.99-.77,2.88c-.51.89-1.21,1.59-2.09,2.1-.88.5-1.85.75-2.91.75-1.56,0-2.89-.56-4-1.66-1.1-1.11-1.66-2.46-1.66-4.05,0-1.7.62-3.12,1.87-4.25,1.09-.99,2.35-1.48,3.77-1.48ZM162.27,17.84c-.85,0-1.55.3-2.12.89-.56.59-.85,1.35-.85,2.27s.28,1.71.84,2.3c.56.59,1.26.88,2.12.88s1.57-.3,2.13-.89c.57-.59.85-1.36.85-2.29s-.28-1.69-.84-2.28c-.56-.58-1.27-.88-2.14-.88Z"/>
    </g>
    <path class="cls-1" d="M115.47,26.42l1.77-8.5,3.08,8.38s.02.04.03.06c0,.02.02.04.03.07h2.46s.02-.04.03-.06c0-.02.02-.04.03-.06l3.06-8.35,1.76,8.48h2.8l-2.85-13.75s0-.02,0-.02c-.01-.05-.03-.1-.05-.15-.01-.04-.02-.08-.04-.11-.02-.04-.04-.08-.07-.12-.02-.04-.04-.07-.06-.11-.03-.04-.06-.08-.1-.11-.02-.03-.05-.06-.07-.08-.04-.04-.08-.07-.12-.1-.03-.02-.05-.04-.08-.06-.04-.03-.08-.04-.13-.07-.04-.02-.08-.04-.12-.06,0,0-.02,0-.03-.01-.03-.01-.07-.02-.1-.03-.04-.01-.09-.03-.13-.03-.05,0-.09,0-.14-.01-.04,0-.09,0-.13,0-.05,0-.09,0-.14.01-.04,0-.07,0-.11.01,0,0-.02,0-.03,0-.04,0-.08.02-.12.04-.05.02-.1.03-.14.05-.03.01-.05.03-.08.04-.05.03-.1.05-.15.09-.03.02-.05.04-.07.06-.04.04-.09.07-.13.11-.03.03-.05.06-.07.09-.03.04-.06.08-.09.12-.02.03-.03.07-.05.1-.03.05-.05.09-.07.14,0,0,0,.01-.01.02l-3.43,9.36-3.45-9.36s0-.01,0-.02c-.02-.05-.05-.1-.07-.15-.02-.03-.03-.07-.05-.1-.03-.04-.06-.08-.09-.11-.03-.03-.05-.07-.08-.1-.03-.03-.07-.06-.1-.09-.03-.03-.06-.06-.1-.08-.03-.02-.07-.04-.11-.06-.04-.02-.08-.05-.12-.07-.03-.01-.07-.02-.1-.03-.05-.02-.11-.04-.16-.05,0,0-.01,0-.02,0-.03,0-.05,0-.08,0-.06,0-.11-.02-.17-.02-.04,0-.07,0-.11,0-.05,0-.1,0-.16.01-.04,0-.08.02-.12.03-.04.01-.08.02-.11.03,0,0-.02,0-.02.01-.04.01-.07.03-.1.05-.05.02-.1.05-.14.07-.02.01-.04.03-.06.04-.05.04-.11.08-.15.12-.02.02-.03.04-.05.06-.04.05-.09.09-.12.14-.02.03-.04.06-.05.09-.03.04-.05.09-.08.14-.02.03-.02.07-.04.11-.02.05-.04.1-.05.15,0,0,0,.01,0,.02l-2.87,13.75h2.8Z"/>
    <path class="cls-1" d="M50.91,26.42l1.77-8.5,3.08,8.38s.02.04.03.06c0,.02.02.04.03.07h2.46s.02-.04.03-.06c0-.02.02-.04.03-.06l3.06-8.35,1.76,8.48h2.8l-2.85-13.75s0-.02,0-.02c-.01-.05-.03-.1-.05-.15-.01-.04-.02-.08-.04-.11-.02-.04-.04-.08-.07-.12-.02-.04-.04-.07-.06-.11-.03-.04-.06-.08-.1-.11-.02-.03-.05-.06-.07-.08-.04-.04-.08-.07-.12-.1-.03-.02-.05-.04-.08-.06-.04-.03-.08-.04-.13-.07-.04-.02-.08-.04-.12-.06,0,0-.02,0-.03-.01-.03-.01-.07-.02-.1-.03-.04-.01-.09-.03-.13-.03-.05,0-.09,0-.14-.01-.04,0-.09,0-.13,0-.05,0-.09,0-.14.01-.04,0-.07,0-.11.01,0,0-.02,0-.03,0-.04,0-.08.02-.12.04-.05.02-.1.03-.14.05-.03.01-.05.03-.08.04-.05.03-.1.05-.15.09-.03.02-.05.04-.07.06-.04.04-.09.07-.12.11-.03.03-.05.06-.07.09-.03.04-.06.08-.09.12-.02.03-.03.07-.05.1-.03.05-.05.09-.07.14,0,0,0,.01-.01.02l-3.43,9.36-3.45-9.36s0-.01,0-.02c-.02-.05-.05-.1-.07-.15-.02-.03-.03-.07-.05-.1-.03-.04-.06-.08-.09-.11-.03-.03-.05-.07-.08-.1-.03-.03-.07-.06-.1-.09-.03-.03-.06-.06-.1-.08-.03-.02-.07-.04-.11-.06-.04-.02-.08-.05-.12-.07-.03-.01-.07-.02-.1-.03-.05-.02-.11-.04-.16-.05,0,0-.01,0-.02,0-.03,0-.05,0-.08,0-.06,0-.11-.02-.17-.02-.04,0-.07,0-.11,0-.05,0-.1,0-.16.01-.04,0-.08.02-.12.03-.04.01-.08.02-.11.03,0,0-.02,0-.02.01-.04.01-.07.03-.1.05-.05.02-.1.05-.14.07-.02.01-.04.03-.06.04-.05.04-.11.08-.15.12-.02.02-.03.04-.05.06-.04.05-.09.09-.12.14-.02.03-.04.06-.05.09-.03.04-.05.09-.08.14-.01.03-.02.07-.04.11-.02.05-.04.1-.05.15,0,0,0,.01,0,.02l-2.87,13.75h2.8Z"/>
  </g>
  <g>
    <path class="cls-1" d="M30.03,14.72c.72,0,1.3-.58,1.3-1.3s-.58-1.3-1.3-1.3-1.3.58-1.3,1.3.58,1.3,1.3,1.3Z"/>
    <path class="cls-1" d="M20.72.28C9.83.28,1,9.11,1,20s8.83,19.72,19.72,19.72,19.72-8.83,19.72-19.72S31.6.28,20.72.28ZM8.3,28.23c-.19,0-.38-.05-.56-.16-.5-.31-.66-.97-.35-1.47l8.41-13.74s.06-.09.1-.13c.04-.07.09-.14.15-.21.41-.42,1.09-.44,1.51-.02l5.94,5.76,3.72-3.53c-.19-.4-.29-.84-.29-1.31,0-1.71,1.38-3.09,3.09-3.09s3.09,1.38,3.09,3.09-1.38,3.09-3.09,3.09c-.46,0-.89-.1-1.27-.28l-4.51,4.28s-.06.05-.09.07c-.02.02-.04.04-.07.05-.04.02-.07.04-.11.06-.02.01-.05.03-.07.04-.04.02-.09.03-.13.04-.02,0-.04.02-.07.02-.07.01-.14.02-.2.02s-.14,0-.21-.02c-.02,0-.04-.01-.06-.02-.05-.01-.09-.02-.14-.04-.02,0-.05-.02-.07-.04-.04-.02-.08-.04-.12-.06-.03-.02-.05-.04-.07-.06-.03-.02-.06-.04-.08-.07l-5.72-5.55-7.81,12.76c-.2.33-.55.51-.91.51ZM33.4,28.09c-.17.1-.35.14-.53.14-.37,0-.73-.19-.93-.54l-2.92-5.13-4.75,4.72s0,0,0,0c0,0,0,0,0,0h0s-.04.04-.06.06c-.03.03-.07.06-.1.08-.02.02-.05.03-.08.04-.04.02-.07.04-.11.06-.03.01-.07.02-.1.03-.03,0-.06.02-.09.03-.07.01-.14.02-.2.02s-.14,0-.2-.02c-.03,0-.06-.02-.09-.03-.04-.01-.08-.02-.11-.03-.03-.01-.05-.03-.08-.04-.04-.02-.07-.03-.1-.06-.02-.01-.03-.03-.05-.04-.04-.03-.08-.06-.11-.09l-4.79-4.73-2.92,5.1c-.2.35-.56.54-.93.54-.18,0-.36-.05-.53-.14-.51-.29-.69-.95-.4-1.46l3.61-6.3s.01-.01.02-.02c.02-.03.04-.06.07-.09.02-.03.04-.06.06-.08,0,0,.01-.02.02-.02.02-.02.04-.03.06-.05.03-.02.05-.05.08-.07.03-.02.06-.04.09-.06.03-.02.06-.03.09-.05.03-.01.07-.03.1-.04.03-.01.06-.02.09-.03.03,0,.07-.01.1-.02.03,0,.07,0,.1-.01.03,0,.07,0,.1,0,.03,0,.07,0,.1,0,.04,0,.07.01.11.02.03,0,.06.02.09.03.04.01.08.03.11.05.02,0,.04.01.06.03,0,0,.01.01.02.02.03.02.06.04.1.07.03.02.06.04.08.06,0,0,.02.01.02.02l5.02,4.97,5-4.97s.02-.01.02-.02c.03-.02.05-.05.08-.07.03-.02.06-.05.09-.07,0,0,.02-.01.02-.02.02-.01.04-.02.06-.03.04-.02.07-.04.11-.05.03-.01.06-.02.09-.03.04,0,.07-.02.11-.02.03,0,.06,0,.09,0,.04,0,.07,0,.11,0,.03,0,.06,0,.09,0,.04,0,.08.01.11.02.03,0,.06.02.09.03.04.01.07.02.11.04.03.01.06.03.08.04.03.02.06.04.09.06.03.02.06.04.08.07.02.02.04.03.06.05,0,0,.01.02.02.03.02.02.04.05.06.08.02.03.05.06.07.1,0,0,.01.01.02.02l3.62,6.35c.29.51.11,1.17-.4,1.46Z"/>
  </g>
</svg>
